<svg width="20" height="20" viewBox="0 0 20 20" fill="none" xmlns="http://www.w3.org/2000/svg">
<path d="M18.6097 5.70723C18.1459 4.72403 17.4834 3.83889 16.638 3.08095C15.7926 2.32302 14.8094 1.72939 13.7123 1.31332C12.5754 0.883997 11.3722 0.666687 10.1319 0.666687C8.89168 0.666687 7.68852 0.883997 6.55427 1.31332C5.45712 1.72939 4.47392 2.32302 3.62853 3.08095C2.78314 3.83889 2.11796 4.72138 1.65683 5.70723C1.17716 6.72753 0.93335 7.81143 0.93335 8.92978C0.93335 10.0428 1.17451 11.1241 1.65153 12.147C2.11266 13.1355 2.77254 14.026 3.60998 14.7919C4.45007 15.5604 5.42532 16.162 6.50657 16.586C7.63022 17.0233 8.81748 17.2459 10.0365 17.2459C10.2618 17.2459 10.4924 17.2379 10.7176 17.222C10.7282 17.222 10.7388 17.222 10.7494 17.222C11.0118 17.222 11.2238 17.434 11.2238 17.6964V18.8996C11.2238 19.2494 11.518 19.4667 11.7909 19.4667C11.8996 19.4667 12.0082 19.4322 12.1036 19.3713L12.3792 19.1884H12.3819H12.3846C12.8404 18.8996 14.4463 17.8236 15.9914 16.1726C16.85 15.2556 17.5523 14.3042 18.0823 13.3502C18.721 12.1921 19.1106 11.0181 19.2378 9.85468V9.84408L19.2404 9.83348C19.3279 9.47836 19.3279 9.216 19.3279 8.93508C19.3332 7.81143 19.0894 6.72753 18.6097 5.70723ZM17.7776 9.59496V9.60557C17.4251 12.5923 15.2334 14.9959 13.4579 16.4853C13.3836 16.5489 13.2909 16.5807 13.1955 16.5807C12.9676 16.5807 12.7821 16.3952 12.7821 16.1673V15.4067C12.7821 15.3563 12.7397 15.3139 12.6893 15.3139C12.684 15.3139 12.6787 15.3139 12.6734 15.3139L11.8466 15.4517C11.237 15.579 10.6196 15.6452 10.0127 15.6452C5.86259 15.6452 2.48632 12.632 2.48632 8.93243C2.48632 5.23286 5.91559 2.22231 10.1319 2.22231C14.3483 2.22231 17.7776 5.23286 17.7776 8.93243V9.59496Z" fill="#62696E"/>
</svg>
