<svg width="19" height="19" viewBox="0 0 19 19" fill="none" xmlns="http://www.w3.org/2000/svg">
<path d="M15.7819 5.77652H14.8723V3.04784C14.8723 2.32415 14.5848 1.63009 14.0731 1.11837C13.5613 0.606639 12.8673 0.319153 12.1436 0.319153H3.04782C2.32411 0.319153 1.63005 0.606639 1.11832 1.11837C0.606582 1.63009 0.319092 2.32415 0.319092 3.04784V13.9626C0.319988 14.1422 0.374019 14.3174 0.474375 14.4664C0.574732 14.6153 0.716922 14.7311 0.883028 14.7994C0.990976 14.8503 1.10935 14.8752 1.22867 14.8721C1.34837 14.8728 1.46704 14.8499 1.57786 14.8046C1.68868 14.7594 1.78947 14.6927 1.87446 14.6084L4.43037 12.0434H5.77654V13.3532C5.77654 14.0769 6.06403 14.7709 6.57576 15.2826C7.0875 15.7944 7.78156 16.0819 8.50526 16.0819H14.7995L16.9552 18.2466C17.0402 18.3309 17.141 18.3976 17.2518 18.4429C17.3626 18.4881 17.4813 18.5111 17.601 18.5104C17.7203 18.5135 17.8387 18.4885 17.9466 18.4376C18.1128 18.3694 18.2549 18.2535 18.3553 18.1046C18.4557 17.9557 18.5097 17.7804 18.5106 17.6008V8.50521C18.5106 7.78152 18.2231 7.08747 17.7114 6.57574C17.1996 6.06401 16.5056 5.77652 15.7819 5.77652ZM5.77654 8.50521V10.2243H4.05744C3.93774 10.2236 3.81907 10.2465 3.70825 10.2918C3.59743 10.3371 3.49664 10.4038 3.41165 10.4881L2.13824 11.7705V3.04784C2.13824 2.80661 2.23407 2.57526 2.40465 2.40468C2.57523 2.23411 2.80658 2.13828 3.04782 2.13828H12.1436C12.3848 2.13828 12.6161 2.23411 12.7867 2.40468C12.9573 2.57526 13.0531 2.80661 13.0531 3.04784V5.77652H8.50526C7.78156 5.77652 7.0875 6.06401 6.57576 6.57574C6.06403 7.08747 5.77654 7.78152 5.77654 8.50521ZM16.6914 15.4088L15.7819 14.4992C15.6976 14.4133 15.5972 14.3449 15.4863 14.2981C15.3755 14.2512 15.2564 14.2269 15.1361 14.2264H8.50526C8.26403 14.2264 8.03267 14.1305 7.8621 13.9599C7.69152 13.7894 7.59569 13.558 7.59569 13.3168V8.50521C7.59569 8.26398 7.69152 8.03263 7.8621 7.86205C8.03267 7.69148 8.26403 7.59565 8.50526 7.59565H15.7819C16.0231 7.59565 16.2544 7.69148 16.425 7.86205C16.5956 8.03263 16.6914 8.26398 16.6914 8.50521V15.4088Z" fill="#62696E"/>
</svg>
