<svg width="20" height="20" viewBox="0 0 20 20" fill="none" xmlns="http://www.w3.org/2000/svg">
<path d="M13.0013 19.4667C12.6952 19.4667 12.4024 19.3295 12.2072 19.0868L8.08637 14.0189C7.88059 13.7656 7.87796 13.4042 8.07845 13.1457L12.0885 8.04347L6.98626 12.0535C6.73036 12.2566 6.36629 12.2513 6.11303 12.0456L1.04513 7.92475C0.754933 7.68732 0.615111 7.3127 0.683703 6.94336C0.752295 6.57402 1.01611 6.27327 1.37226 6.15455L17.99 0.722589C18.3963 0.590681 18.8342 0.696207 19.135 0.996957C19.4357 1.29771 19.5412 1.73828 19.4093 2.14192L13.9747 18.7597C13.8587 19.1158 13.5553 19.3796 13.1859 19.4482C13.1252 19.4614 13.0619 19.4667 13.0013 19.4667ZM9.52416 13.5704L12.8588 17.6754L17.9109 2.21842L2.45654 7.27313L6.56152 10.6078L13.4735 5.1758C13.9009 4.84075 14.4892 4.87505 14.8717 5.26022C15.2542 5.64275 15.2912 6.23106 14.9561 6.65844L9.52416 13.5704Z" fill="#62696E"/>
</svg>
